<?xml version="1.0" encoding="utf-8"?>
<!-- Generator: Adobe Illustrator 24.0.3, SVG Export Plug-In . SVG Version: 6.00 Build 0)  -->
<svg version="1.1" id="Layer_1" xmlns="http://www.w3.org/2000/svg" xmlns:xlink="http://www.w3.org/1999/xlink" x="0px" y="0px"
	 viewBox="0 0 20 12" style="enable-background:new 0 0 20 12;" xml:space="preserve">
<style type="text/css">
	.st0{fill:#CC2229;}
	.st1{display:none;fill:#CC2229;}
	.st2{display:none;}
	.st3{display:inline;fill:none;}
</style>
<g id="Designs">
	<g>
		<path class="st0" d="M19.2,11.8L0.4,0.9C0.1,0.7,0,0.4,0.1,0.3S0.5,0,0.8,0.1L19.7,11c0.3,0.2,0.4,0.5,0.2,0.7
			C19.8,12,19.5,12,19.2,11.8z"/>
		<path class="st1" d="M19.5,6.5h-19C0.2,6.5,0,6.3,0,6s0.2-0.5,0.5-0.5h19C19.8,5.5,20,5.7,20,6S19.8,6.5,19.5,6.5z"/>
		<path class="st0" d="M19.7,1L0.9,11.8c-0.3,0.2-0.6,0.1-0.7-0.1c-0.1-0.3-0.1-0.5,0.2-0.7L19.2,0.1c0.3-0.2,0.6-0.1,0.7,0.1
			S20,0.8,19.7,1z"/>
	</g>
</g>
<g id="Grid" class="st2">
</g>
<g id="Dev_Notes" class="st2">
	<rect x="-389.6" y="-54.2" class="st3" width="612.1" height="230.7"/>
	
		<text transform="matrix(1 0 0 1 -194.6794 159.9829)" style="display:inline;fill:#FF00FF; font-family:'HelveticaNeue-Bold'; font-size:300px;">c</text>
	<rect x="-52.8" y="-21.4" class="st3" width="2337.6" height="230.7"/>
	
		<text transform="matrix(1 0 0 1 519.7729 121.4268)" style="display:inline;fill:#FF00FF; font-family:'HelveticaNeue-Bold'; font-size:200px;">disregard</text>
</g>
</svg>
